<?xml version="1.0" standalone="no"?>
<!DOCTYPE svg PUBLIC "-//W3C//DTD SVG 20010904//EN"
 "http://www.w3.org/TR/2001/REC-SVG-20010904/DTD/svg10.dtd">
<svg version="1.0" xmlns="http://www.w3.org/2000/svg"
 width="514.000000pt" height="513.000000pt" viewBox="0 0 514.000000 513.000000"
 preserveAspectRatio="xMidYMid meet">

<g transform="translate(0.000000,513.000000) scale(0.100000,-0.100000)"
fill="#000000" stroke="none">
<path d="M856 4904 c-175 -42 -315 -183 -359 -359 -20 -79 -43 -219 -63 -386
-13 -104 -18 -254 -21 -679 -5 -567 1 -729 36 -1006 35 -265 44 -466 38 -828
-4 -233 -10 -376 -21 -451 -44 -302 -49 -359 -50 -530 -1 -166 1 -184 22 -237
50 -124 157 -230 281 -280 50 -20 73 -23 226 -23 154 0 174 2 217 22 66 30
143 105 175 172 25 51 28 66 27 166 0 176 -22 252 -156 549 -138 306 -192 489
-223 754 -16 133 -20 252 -8 252 43 0 419 54 453 65 87 29 161 117 176 213 l7
42 -402 0 -401 0 0 120 0 120 400 0 400 0 0 80 0 80 -400 0 -400 0 0 80 0 80
400 0 400 0 0 80 0 80 -400 0 -400 0 0 80 0 80 400 0 400 0 0 80 0 80 -400 0
-400 0 0 80 0 80 400 0 400 0 0 80 0 80 -400 0 -400 0 0 80 0 80 400 0 400 0
0 80 0 80 -400 0 -400 0 0 80 0 80 400 0 400 0 0 80 0 80 -400 0 -400 0 0 120
0 120 400 0 c324 0 400 2 400 13 0 44 -35 123 -73 164 -67 73 -94 81 -346 114
-254 33 -254 33 -335 13z"/>
<path d="M2070 3117 c0 -29 69 -234 121 -357 73 -170 111 -235 488 -833 l345
-546 195 -86 c227 -100 318 -154 412 -242 118 -111 199 -236 255 -393 69 -195
168 -328 292 -393 174 -92 335 -89 419 6 46 53 57 96 50 201 -11 153 -60 299
-124 362 -60 61 -107 79 -203 79 -102 0 -128 -12 -217 -96 -97 -93 -138 -81
-196 57 -95 228 -273 405 -507 504 l-85 37 -370 551 c-377 562 -492 721 -678
942 -163 193 -196 228 -197 207z m2278 -2373 c80 -33 132 -110 139 -209 12
-138 -83 -213 -197 -155 -73 37 -119 122 -120 220 0 69 24 117 70 142 42 22
60 22 108 2z"/>
<path d="M4484 3018 c-251 -287 -365 -442 -746 -1012 l-308 -460 112 -58 c61
-32 114 -58 118 -58 13 0 683 1077 740 1190 91 181 204 489 187 506 -3 3 -49
-46 -103 -108z"/>
<path d="M2936 1159 c-90 -97 -173 -230 -205 -331 -15 -44 -44 -68 -83 -68
-21 0 -46 16 -92 59 -92 86 -115 96 -216 96 -91 0 -133 -15 -199 -70 -63 -53
-118 -211 -128 -366 -7 -110 7 -166 55 -215 46 -48 88 -64 165 -64 235 0 427
155 527 427 45 124 67 169 116 246 51 79 164 200 225 243 22 15 39 30 39 34 0
4 -17 14 -37 22 -21 9 -54 23 -75 32 l-36 16 -56 -61z m-520 -418 c56 -25 78
-72 72 -156 -9 -152 -142 -266 -248 -212 -91 46 -96 212 -9 311 40 45 90 76
124 76 11 0 38 -9 61 -19z"/>
</g>
</svg>
