<svg id='instagram' xmlns="http://www.w3.org/2000/svg" width="24" height="24" fill="none" viewBox="0 0 24 24"><path fill="#fff" d="M12 8.4a3.6 3.6 0 1 0 0 7.2 3.6 3.6 0 0 0 0-7.2ZM12 6a6 6 0 1 1 0 12 6 6 0 0 1 0-12Zm7.8-.3a1.5 1.5 0 1 1-3 0 1.5 1.5 0 0 1 3 0ZM12 2.4c-2.969 0-3.454.008-4.835.07-.94.044-1.572.17-2.157.398-.49.18-.934.468-1.296.844a3.468 3.468 0 0 0-.845 1.296c-.228.588-.354 1.218-.397 2.157C2.407 8.49 2.4 8.953 2.4 12c0 2.969.008 3.454.07 4.835.044.94.17 1.572.397 2.156a3.5 3.5 0 0 0 .842 1.296c.405.403.78.645 1.296.844.593.229 1.224.356 2.16.4 1.325.062 1.788.069 4.835.069 2.969 0 3.454-.008 4.835-.07.938-.044 1.57-.17 2.156-.397.49-.18.932-.468 1.296-.842a3.47 3.47 0 0 0 .845-1.296c.228-.592.355-1.224.398-2.16.063-1.325.07-1.788.07-4.835 0-2.969-.008-3.454-.07-4.835-.044-.938-.17-1.572-.398-2.157-.18-.49-.47-.933-.844-1.296a3.46 3.46 0 0 0-1.296-.845c-.588-.228-1.219-.354-2.157-.397C15.51 2.407 15.047 2.4 12 2.4ZM12 0c3.26 0 3.667.012 4.946.072 1.278.06 2.148.26 2.914.558a5.85 5.85 0 0 1 2.126 1.384A5.89 5.89 0 0 1 23.37 4.14c.296.764.498 1.636.558 2.914C23.984 8.333 24 8.74 24 12s-.012 3.667-.072 4.946c-.06 1.278-.262 2.148-.558 2.914a5.86 5.86 0 0 1-1.384 2.126 5.897 5.897 0 0 1-2.126 1.384c-.764.296-1.636.498-2.914.558C15.667 23.984 15.26 24 12 24s-3.667-.012-4.946-.072c-1.278-.06-2.148-.262-2.914-.558a5.868 5.868 0 0 1-2.126-1.384A5.885 5.885 0 0 1 .63 19.86c-.298-.764-.498-1.636-.558-2.914C.016 15.667 0 15.26 0 12s.012-3.667.072-4.946c.06-1.28.26-2.148.558-2.914.3-.801.773-1.527 1.384-2.126A5.876 5.876 0 0 1 4.14.63C4.906.332 5.774.132 7.054.072 8.333.016 8.74 0 12 0Z"/></svg>