<svg id='star' xmlns="http://www.w3.org/2000/svg" width="161" height="28" fill="none" viewBox="0 0 161 28"><path fill="#F2C94C" d="m14.2 21.32-4.842 2.917a1.06 1.06 0 0 1-.67.175 1.127 1.127 0 0 1-.613-.233 1.4 1.4 0 0 1-.408-.51 1.022 1.022 0 0 1-.059-.686l1.284-5.512-4.288-3.704a1.114 1.114 0 0 1-.364-.599 1.156 1.156 0 0 1 .043-.656 1.25 1.25 0 0 1 .35-.525c.156-.136.37-.223.642-.262l5.658-.496 2.188-5.192c.097-.233.248-.408.452-.525.204-.116.413-.175.627-.175.214 0 .423.059.628.175.204.117.354.292.451.525l2.188 5.192 5.658.496c.272.039.486.126.642.262.155.136.272.312.35.525a1.121 1.121 0 0 1-.32 1.254l-4.289 3.705 1.284 5.512c.058.253.039.482-.059.686a1.4 1.4 0 0 1-.408.51c-.175.136-.38.214-.613.233a1.06 1.06 0 0 1-.67-.175L14.2 21.321ZM47.2 21.32l-4.842 2.917a1.06 1.06 0 0 1-.67.175 1.127 1.127 0 0 1-.613-.233 1.4 1.4 0 0 1-.408-.51 1.022 1.022 0 0 1-.059-.686l1.284-5.512-4.288-3.704a1.114 1.114 0 0 1-.364-.599 1.157 1.157 0 0 1 .043-.656 1.25 1.25 0 0 1 .35-.525c.156-.136.37-.223.642-.262l5.658-.496 2.188-5.192c.097-.233.248-.408.453-.525.203-.116.412-.175.626-.175.214 0 .423.059.628.175.203.117.354.292.451.525l2.188 5.192 5.658.496c.272.039.486.126.642.262.155.136.272.312.35.525a1.121 1.121 0 0 1-.32 1.254l-4.289 3.705 1.284 5.512c.058.253.039.482-.059.686a1.4 1.4 0 0 1-.408.51c-.175.136-.38.214-.613.233a1.06 1.06 0 0 1-.67-.175L47.2 21.321ZM80.2 21.32l-4.842 2.917a1.06 1.06 0 0 1-.67.175 1.127 1.127 0 0 1-.613-.233 1.4 1.4 0 0 1-.408-.51 1.022 1.022 0 0 1-.059-.686l1.284-5.512-4.288-3.704a1.114 1.114 0 0 1-.364-.599 1.157 1.157 0 0 1 .043-.656 1.25 1.25 0 0 1 .35-.525c.156-.136.37-.223.642-.262l5.658-.496 2.188-5.192c.097-.233.248-.408.453-.525.203-.116.412-.175.626-.175.214 0 .423.059.628.175.203.117.354.292.451.525l2.188 5.192 5.658.496c.272.039.486.126.642.262.155.136.272.312.35.525a1.121 1.121 0 0 1-.32 1.254l-4.289 3.705 1.284 5.512c.058.253.039.482-.059.686a1.4 1.4 0 0 1-.408.51c-.175.136-.38.214-.612.233a1.06 1.06 0 0 1-.671-.175L80.2 21.321ZM113.2 21.32l-4.842 2.917a1.058 1.058 0 0 1-.67.175 1.127 1.127 0 0 1-.613-.233 1.397 1.397 0 0 1-.408-.51 1.019 1.019 0 0 1-.059-.686l1.284-5.512-4.288-3.704a1.116 1.116 0 0 1-.364-.599 1.163 1.163 0 0 1 .043-.656c.078-.213.195-.389.35-.525.156-.136.37-.223.642-.262l5.658-.496 2.188-5.192c.097-.233.248-.408.453-.525.203-.116.412-.175.626-.175.214 0 .423.059.628.175.203.117.354.292.451.525l2.188 5.192 5.658.496c.272.039.486.126.642.262a1.257 1.257 0 0 1 .394 1.181 1.124 1.124 0 0 1-.365.599l-4.288 3.704 1.284 5.512c.058.253.039.482-.059.686a1.397 1.397 0 0 1-.408.51 1.127 1.127 0 0 1-.612.233 1.06 1.06 0 0 1-.671-.175l-4.842-2.916ZM146.2 21.32l-4.842 2.917a1.058 1.058 0 0 1-.67.175 1.127 1.127 0 0 1-.613-.233 1.397 1.397 0 0 1-.408-.51 1.019 1.019 0 0 1-.059-.686l1.284-5.512-4.288-3.704a1.116 1.116 0 0 1-.364-.599 1.163 1.163 0 0 1 .043-.656c.078-.213.195-.389.35-.525.156-.136.37-.223.642-.262l5.658-.496 2.188-5.192c.097-.233.248-.408.453-.525.203-.116.412-.175.626-.175.214 0 .423.059.628.175.203.117.354.292.451.525l2.188 5.192 5.658.496c.272.039.486.126.642.262a1.257 1.257 0 0 1 .394 1.181 1.124 1.124 0 0 1-.365.599l-4.288 3.704 1.284 5.512c.058.253.039.482-.059.686a1.397 1.397 0 0 1-.408.51 1.127 1.127 0 0 1-.612.233 1.06 1.06 0 0 1-.671-.175l-4.842-2.916Z"/></svg>