<svg id='telegram' xmlns="http://www.w3.org/2000/svg" width="24" height="24" fill="none" viewBox="0 0 24 24"><path fill="#000" stroke="#FCF9F9" stroke-width="2" d="M23 12c0 6.075-4.925 11-11 11S1 18.075 1 12 5.925 1 12 1s11 4.925 11 11Z"/><path fill="#fff" stroke="#FCF9F9" stroke-width="2" d="M7.08 12.647c-.181-.046-.373-.1-.56-.156a760.332 760.332 0 0 1 5.255-2.27c-.822.546-1.933 1.292-3.332 2.236l-.006.004c-.388.266-.615.307-.714.305-.093-.002-.312-.037-.642-.12Zm7.897-3.43a1.145 1.145 0 0 0-.31-.198c.623-.252 1.079-.43 1.423-.554.19-.07.338-.119.452-.154-.215 1.978-.94 6.254-1.322 8.294-.034.179-.07.302-.102.385-.05-.02-.11-.05-.188-.095a5.475 5.475 0 0 1-.386-.258l-.072-.052c-.13-.093-.284-.202-.442-.306-.52-.34-.928-.617-1.336-.896l-.055-.037c-.385-.262-.776-.528-1.261-.848l.096-.094.029-.027a10.85 10.85 0 0 0 .283-.28c.011-.012.056-.054.15-.142l.344-.32.046-.043c.313-.292.718-.668 1.12-1.048.4-.378.804-.765 1.114-1.077.154-.154.295-.3.403-.421.053-.06.11-.127.16-.194.026-.033.059-.08.091-.134.023-.038.09-.154.128-.313.034-.146.04-.311.017-.47a1.19 1.19 0 0 0-.382-.718Zm-9.683 2.862Zm.077.938a.018.018 0 0 1-.001.002l.001-.002Z"/></svg>