<svg id='youtube' xmlns="http://www.w3.org/2000/svg" width="25" height="25" fill="none" viewBox="0 0 25 25">
  <mask id="a" fill="#fff">
    <rect width="24" height="24" y=".239" rx="3" transform="rotate(-.571 0 .24)"/>
  </mask>
  <rect width="24" height="24" y=".239" stroke="#FFFCFC" stroke-width="16" mask="url(#a)" rx="3" transform="rotate(-.571 0 .24)"/>
  <path fill="#1A1919" d="M18.615 2H3.435C1.943 2 2 2.507 2 4v17.053c0 .523.424.947.947.947H20c2 0 2 0 2.115-1.385V4.402c0-.84.052-2.01-.746-2.274C20.985 2 20.257 2 18.615 2Z"/>
  <path fill="#fff" d="M17.79 9.137a1.485 1.485 0 0 0-1.06-1.04c-.903-.215-4.728-.177-4.728-.177s-3.75.037-4.722.272a1.485 1.485 0 0 0-1.04 1.06c-.14.977-.12 2.927-.12 2.927s.019 1.95.253 2.922c.156.524.534.895 1.06 1.04.903.216 4.728.178 4.728.178s3.75-.038 4.722-.272a1.485 1.485 0 0 0 1.04-1.06c.215-.978.196-2.928.196-2.928s-.02-1.95-.33-2.922Zm-6.853 4.794-.036-3.6L14.07 12.1l-3.132 1.83Z"/>
</svg>
